<svg xmlns="http://www.w3.org/2000/svg" width="70.5" height="70.5"><path fill="none" stroke="#C6CFD2" stroke-width="3" d="M34.5 1.998c-17.95 0-32.501 14.551-32.501 32.501C1.999 52.449 16.55 67 34.5 67c17.95 0 32.501-14.551 32.501-32.501 0-17.95-14.551-32.501-32.501-32.501z"/><path fill="#C6CFD2" fill-rule="evenodd" d="M45.55 34.499c0 .819-.666 1.486-1.487 1.486H27.925l6.385 6.376a1.487 1.487 0 01-2.103 2.102l-8.927-8.915c-.003-.003-.003-.009-.008-.012a1.476 1.476 0 01.008-2.086l8.927-8.915a1.486 1.486 0 112.103 2.101l-6.385 6.377h16.138c.821 0 1.487.666 1.487 1.486z"/></svg>